<?xml version="1.0" standalone="no"?><svg xmlns:xlink="http://www.w3.org/1999/xlink" xmlns="http://www.w3.org/2000/svg" viewBox="0 0 1000 545.4448559780437" preserveAspectRatio="xMaxYMax slice"><g transform="scale(0.8882020126657608)"><rect x="0" y="0" width="1125.8756666666666" height="614.114" fill="#ffffff"/><g transform="translate(10.24,10.24) scale(4.093999999999999) rotate(0)"><rect width="2" height="20" fill="#ed1c24"/><rect x="4" width="2" height="20" fill="#ed1c24"/><rect x="8" width="2" height="20" fill="#ed1c24"/><rect x="12" width="2" height="20" fill="#ed1c24"/><rect x="16" width="2" height="20" fill="#ed1c24"/></g><g transform="translate(112.59,10.24) scale(4.093999999999999) rotate(0)"><path d="M10 0H20L0 20V10L10 0Z" fill="#ed1c24"/><path d="M20 10V20H10L20 10Z" fill="#ed1c24"/></g><g transform="translate(214.94,10.24) scale(4.093999999999999) rotate(0)"><path d="M10 0H20L0 20V10L10 0Z" fill="#ed1c24"/><path d="M20 10V20H10L20 10Z" fill="#ed1c24"/></g><g transform="translate(317.29,10.24) scale(4.093999999999999) rotate(0)"><rect width="20" height="2" fill="#ed1c24"/><rect y="4" width="20" height="2" fill="#ed1c24"/><rect y="8" width="20" height="2" fill="#ed1c24"/><rect y="12" width="20" height="2" fill="#ed1c24"/><rect y="16" width="20" height="2" fill="#ed1c24"/></g><g transform="translate(419.64,10.24) scale(4.093999999999999) rotate(0)"><rect width="20" height="2" fill="#ed1c24"/><rect y="4" width="20" height="2" fill="#ed1c24"/><rect y="8" width="20" height="2" fill="#ed1c24"/><rect y="12" width="20" height="2" fill="#ed1c24"/><rect y="16" width="20" height="2" fill="#ed1c24"/></g><g transform="translate(522,10.24) scale(4.093999999999999) rotate(0)"><path d="M10 0H20L0 20V10L10 0Z" fill="#ed1c24"/><path d="M20 10V20H10L20 10Z" fill="#ed1c24"/></g><g transform="translate(624.35,10.24) scale(4.093999999999999) rotate(0)"><path d="M10 0H20L0 20V10L10 0Z" fill="#ed1c24"/><path d="M20 10V20H10L20 10Z" fill="#ed1c24"/></g><g transform="translate(726.7,10.24) scale(4.093999999999999) rotate(0)"><rect width="2" height="20" fill="#ed1c24"/><rect x="4" width="2" height="20" fill="#ed1c24"/><rect x="8" width="2" height="20" fill="#ed1c24"/><rect x="12" width="2" height="20" fill="#ed1c24"/><rect x="16" width="2" height="20" fill="#ed1c24"/></g><g transform="translate(829.05,10.24) scale(4.093999999999999) rotate(0)"><rect width="2" height="20" fill="#ed1c24"/><rect x="4" width="2" height="20" fill="#ed1c24"/><rect x="8" width="2" height="20" fill="#ed1c24"/><rect x="12" width="2" height="20" fill="#ed1c24"/><rect x="16" width="2" height="20" fill="#ed1c24"/></g><g transform="translate(931.41,10.24) scale(4.093999999999999) rotate(0)"><path d="M10 0H20L0 20V10L10 0Z" fill="#ed1c24"/><path d="M20 10V20H10L20 10Z" fill="#ed1c24"/></g><g transform="translate(1033.76,10.24) scale(4.093999999999999) rotate(0)"><rect width="2" height="20" fill="#ed1c24"/><rect x="4" width="2" height="20" fill="#ed1c24"/><rect x="8" width="2" height="20" fill="#ed1c24"/><rect x="12" width="2" height="20" fill="#ed1c24"/><rect x="16" width="2" height="20" fill="#ed1c24"/></g><g transform="translate(10.24,112.59) scale(4.093999999999999) rotate(0)"><path d="M10 0H20L0 20V10L10 0Z" fill="#ed1c24"/><path d="M20 10V20H10L20 10Z" fill="#ed1c24"/></g><g transform="translate(112.59,112.59) scale(4.093999999999999) rotate(0)"><rect width="2" height="20" fill="#ed1c24"/><rect x="4" width="2" height="20" fill="#ed1c24"/><rect x="8" width="2" height="20" fill="#ed1c24"/><rect x="12" width="2" height="20" fill="#ed1c24"/><rect x="16" width="2" height="20" fill="#ed1c24"/></g><g transform="translate(214.94,112.59) scale(4.093999999999999) rotate(0)"><path d="M10 0H20L0 20V10L10 0Z" fill="#ed1c24"/><path d="M20 10V20H10L20 10Z" fill="#ed1c24"/></g><g transform="translate(317.29,112.59) scale(4.093999999999999) rotate(0)"><path d="M10 0H20L0 20V10L10 0Z" fill="#ed1c24"/><path d="M20 10V20H10L20 10Z" fill="#ed1c24"/></g><g transform="translate(419.64,112.59) scale(4.093999999999999) rotate(0)"><rect width="2" height="20" fill="#ed1c24"/><rect x="4" width="2" height="20" fill="#ed1c24"/><rect x="8" width="2" height="20" fill="#ed1c24"/><rect x="12" width="2" height="20" fill="#ed1c24"/><rect x="16" width="2" height="20" fill="#ed1c24"/></g><g transform="translate(522,112.59) scale(4.093999999999999) rotate(0)"><rect width="20" height="2" fill="#ed1c24"/><rect y="4" width="20" height="2" fill="#ed1c24"/><rect y="8" width="20" height="2" fill="#ed1c24"/><rect y="12" width="20" height="2" fill="#ed1c24"/><rect y="16" width="20" height="2" fill="#ed1c24"/></g><g transform="translate(624.35,112.59) scale(4.093999999999999) rotate(0)"><rect width="2" height="20" fill="#ed1c24"/><rect x="4" width="2" height="20" fill="#ed1c24"/><rect x="8" width="2" height="20" fill="#ed1c24"/><rect x="12" width="2" height="20" fill="#ed1c24"/><rect x="16" width="2" height="20" fill="#ed1c24"/></g><g transform="translate(726.7,112.59) scale(4.093999999999999) rotate(0)"><rect width="2" height="20" fill="#ed1c24"/><rect x="4" width="2" height="20" fill="#ed1c24"/><rect x="8" width="2" height="20" fill="#ed1c24"/><rect x="12" width="2" height="20" fill="#ed1c24"/><rect x="16" width="2" height="20" fill="#ed1c24"/></g><g transform="translate(829.05,112.59) scale(4.093999999999999) rotate(0)"><rect width="2" height="20" fill="#ed1c24"/><rect x="4" width="2" height="20" fill="#ed1c24"/><rect x="8" width="2" height="20" fill="#ed1c24"/><rect x="12" width="2" height="20" fill="#ed1c24"/><rect x="16" width="2" height="20" fill="#ed1c24"/></g><g transform="translate(931.41,112.59) scale(4.093999999999999) rotate(0)"><rect width="2" height="20" fill="#ed1c24"/><rect x="4" width="2" height="20" fill="#ed1c24"/><rect x="8" width="2" height="20" fill="#ed1c24"/><rect x="12" width="2" height="20" fill="#ed1c24"/><rect x="16" width="2" height="20" fill="#ed1c24"/></g><g transform="translate(1033.76,112.59) scale(4.093999999999999) rotate(0)"><path d="M10 0H20L0 20V10L10 0Z" fill="#ed1c24"/><path d="M20 10V20H10L20 10Z" fill="#ed1c24"/></g><g transform="translate(10.24,214.94) scale(4.093999999999999) rotate(0)"><rect width="20" height="2" fill="#ed1c24"/><rect y="4" width="20" height="2" fill="#ed1c24"/><rect y="8" width="20" height="2" fill="#ed1c24"/><rect y="12" width="20" height="2" fill="#ed1c24"/><rect y="16" width="20" height="2" fill="#ed1c24"/></g><g transform="translate(112.59,214.94) scale(4.093999999999999) rotate(0)"><path d="M10 0H20L0 20V10L10 0Z" fill="#ed1c24"/><path d="M20 10V20H10L20 10Z" fill="#ed1c24"/></g><g transform="translate(214.94,214.94) scale(4.093999999999999) rotate(0)"><path d="M10 0H20L0 20V10L10 0Z" fill="#ed1c24"/><path d="M20 10V20H10L20 10Z" fill="#ed1c24"/></g><g transform="translate(317.29,214.94) scale(4.093999999999999) rotate(0)"><rect width="20" height="2" fill="#ed1c24"/><rect y="4" width="20" height="2" fill="#ed1c24"/><rect y="8" width="20" height="2" fill="#ed1c24"/><rect y="12" width="20" height="2" fill="#ed1c24"/><rect y="16" width="20" height="2" fill="#ed1c24"/></g><g transform="translate(419.64,214.94) scale(4.093999999999999) rotate(0)"><path d="M10 0H20L0 20V10L10 0Z" fill="#ed1c24"/><path d="M20 10V20H10L20 10Z" fill="#ed1c24"/></g><g transform="translate(522,214.94) scale(4.093999999999999) rotate(0)"><path d="M10 0H20L0 20V10L10 0Z" fill="#ed1c24"/><path d="M20 10V20H10L20 10Z" fill="#ed1c24"/></g><g transform="translate(624.35,214.94) scale(4.093999999999999) rotate(0)"><path d="M10 0H20L0 20V10L10 0Z" fill="#ed1c24"/><path d="M20 10V20H10L20 10Z" fill="#ed1c24"/></g><g transform="translate(726.7,214.94) scale(4.093999999999999) rotate(0)"><rect width="20" height="2" fill="#ed1c24"/><rect y="4" width="20" height="2" fill="#ed1c24"/><rect y="8" width="20" height="2" fill="#ed1c24"/><rect y="12" width="20" height="2" fill="#ed1c24"/><rect y="16" width="20" height="2" fill="#ed1c24"/></g><g transform="translate(829.05,214.94) scale(4.093999999999999) rotate(0)"><rect width="20" height="2" fill="#ed1c24"/><rect y="4" width="20" height="2" fill="#ed1c24"/><rect y="8" width="20" height="2" fill="#ed1c24"/><rect y="12" width="20" height="2" fill="#ed1c24"/><rect y="16" width="20" height="2" fill="#ed1c24"/></g><g transform="translate(931.41,214.94) scale(4.093999999999999) rotate(0)"><rect width="20" height="2" fill="#ed1c24"/><rect y="4" width="20" height="2" fill="#ed1c24"/><rect y="8" width="20" height="2" fill="#ed1c24"/><rect y="12" width="20" height="2" fill="#ed1c24"/><rect y="16" width="20" height="2" fill="#ed1c24"/></g><g transform="translate(1033.76,214.94) scale(4.093999999999999) rotate(0)"><rect width="2" height="20" fill="#ed1c24"/><rect x="4" width="2" height="20" fill="#ed1c24"/><rect x="8" width="2" height="20" fill="#ed1c24"/><rect x="12" width="2" height="20" fill="#ed1c24"/><rect x="16" width="2" height="20" fill="#ed1c24"/></g><g transform="translate(10.24,317.29) scale(4.093999999999999) rotate(0)"><path d="M10 0H20L0 20V10L10 0Z" fill="#ed1c24"/><path d="M20 10V20H10L20 10Z" fill="#ed1c24"/></g><g transform="translate(112.59,317.29) scale(4.093999999999999) rotate(0)"><rect width="2" height="20" fill="#ed1c24"/><rect x="4" width="2" height="20" fill="#ed1c24"/><rect x="8" width="2" height="20" fill="#ed1c24"/><rect x="12" width="2" height="20" fill="#ed1c24"/><rect x="16" width="2" height="20" fill="#ed1c24"/></g><g transform="translate(214.94,317.29) scale(4.093999999999999) rotate(0)"><rect width="2" height="20" fill="#ed1c24"/><rect x="4" width="2" height="20" fill="#ed1c24"/><rect x="8" width="2" height="20" fill="#ed1c24"/><rect x="12" width="2" height="20" fill="#ed1c24"/><rect x="16" width="2" height="20" fill="#ed1c24"/></g><g transform="translate(317.29,317.29) scale(4.093999999999999) rotate(0)"><rect width="20" height="2" fill="#ed1c24"/><rect y="4" width="20" height="2" fill="#ed1c24"/><rect y="8" width="20" height="2" fill="#ed1c24"/><rect y="12" width="20" height="2" fill="#ed1c24"/><rect y="16" width="20" height="2" fill="#ed1c24"/></g><g transform="translate(419.64,317.29) scale(4.093999999999999) rotate(0)"><path d="M10 0H20L0 20V10L10 0Z" fill="#ed1c24"/><path d="M20 10V20H10L20 10Z" fill="#ed1c24"/></g><g transform="translate(522,317.29) scale(4.093999999999999) rotate(0)"><rect width="20" height="2" fill="#ed1c24"/><rect y="4" width="20" height="2" fill="#ed1c24"/><rect y="8" width="20" height="2" fill="#ed1c24"/><rect y="12" width="20" height="2" fill="#ed1c24"/><rect y="16" width="20" height="2" fill="#ed1c24"/></g><g transform="translate(624.35,317.29) scale(4.093999999999999) rotate(0)"><rect width="20" height="2" fill="#ed1c24"/><rect y="4" width="20" height="2" fill="#ed1c24"/><rect y="8" width="20" height="2" fill="#ed1c24"/><rect y="12" width="20" height="2" fill="#ed1c24"/><rect y="16" width="20" height="2" fill="#ed1c24"/></g><g transform="translate(726.7,317.29) scale(4.093999999999999) rotate(0)"><path d="M10 0H20L0 20V10L10 0Z" fill="#ed1c24"/><path d="M20 10V20H10L20 10Z" fill="#ed1c24"/></g><g transform="translate(829.05,317.29) scale(4.093999999999999) rotate(0)"><path d="M10 0H20L0 20V10L10 0Z" fill="#ed1c24"/><path d="M20 10V20H10L20 10Z" fill="#ed1c24"/></g><g transform="translate(931.41,317.29) scale(4.093999999999999) rotate(0)"><path d="M10 0H20L0 20V10L10 0Z" fill="#ed1c24"/><path d="M20 10V20H10L20 10Z" fill="#ed1c24"/></g><g transform="translate(1033.76,317.29) scale(4.093999999999999) rotate(0)"><path d="M10 0H20L0 20V10L10 0Z" fill="#ed1c24"/><path d="M20 10V20H10L20 10Z" fill="#ed1c24"/></g><g transform="translate(10.24,419.64) scale(4.093999999999999) rotate(0)"><rect width="20" height="2" fill="#ed1c24"/><rect y="4" width="20" height="2" fill="#ed1c24"/><rect y="8" width="20" height="2" fill="#ed1c24"/><rect y="12" width="20" height="2" fill="#ed1c24"/><rect y="16" width="20" height="2" fill="#ed1c24"/></g><g transform="translate(112.59,419.64) scale(4.093999999999999) rotate(0)"><rect width="2" height="20" fill="#ed1c24"/><rect x="4" width="2" height="20" fill="#ed1c24"/><rect x="8" width="2" height="20" fill="#ed1c24"/><rect x="12" width="2" height="20" fill="#ed1c24"/><rect x="16" width="2" height="20" fill="#ed1c24"/></g><g transform="translate(214.94,419.64) scale(4.093999999999999) rotate(0)"><rect width="20" height="2" fill="#ed1c24"/><rect y="4" width="20" height="2" fill="#ed1c24"/><rect y="8" width="20" height="2" fill="#ed1c24"/><rect y="12" width="20" height="2" fill="#ed1c24"/><rect y="16" width="20" height="2" fill="#ed1c24"/></g><g transform="translate(317.29,419.64) scale(4.093999999999999) rotate(0)"><rect width="2" height="20" fill="#ed1c24"/><rect x="4" width="2" height="20" fill="#ed1c24"/><rect x="8" width="2" height="20" fill="#ed1c24"/><rect x="12" width="2" height="20" fill="#ed1c24"/><rect x="16" width="2" height="20" fill="#ed1c24"/></g><g transform="translate(419.64,419.64) scale(4.093999999999999) rotate(0)"><path d="M10 0H20L0 20V10L10 0Z" fill="#ed1c24"/><path d="M20 10V20H10L20 10Z" fill="#ed1c24"/></g><g transform="translate(522,419.64) scale(4.093999999999999) rotate(0)"><rect width="20" height="2" fill="#ed1c24"/><rect y="4" width="20" height="2" fill="#ed1c24"/><rect y="8" width="20" height="2" fill="#ed1c24"/><rect y="12" width="20" height="2" fill="#ed1c24"/><rect y="16" width="20" height="2" fill="#ed1c24"/></g><g transform="translate(624.35,419.64) scale(4.093999999999999) rotate(0)"><rect width="20" height="2" fill="#ed1c24"/><rect y="4" width="20" height="2" fill="#ed1c24"/><rect y="8" width="20" height="2" fill="#ed1c24"/><rect y="12" width="20" height="2" fill="#ed1c24"/><rect y="16" width="20" height="2" fill="#ed1c24"/></g><g transform="translate(726.7,419.64) scale(4.093999999999999) rotate(0)"><path d="M10 0H20L0 20V10L10 0Z" fill="#ed1c24"/><path d="M20 10V20H10L20 10Z" fill="#ed1c24"/></g><g transform="translate(829.05,419.64) scale(4.093999999999999) rotate(0)"><rect width="2" height="20" fill="#ed1c24"/><rect x="4" width="2" height="20" fill="#ed1c24"/><rect x="8" width="2" height="20" fill="#ed1c24"/><rect x="12" width="2" height="20" fill="#ed1c24"/><rect x="16" width="2" height="20" fill="#ed1c24"/></g><g transform="translate(931.41,419.64) scale(4.093999999999999) rotate(0)"><rect width="20" height="2" fill="#ed1c24"/><rect y="4" width="20" height="2" fill="#ed1c24"/><rect y="8" width="20" height="2" fill="#ed1c24"/><rect y="12" width="20" height="2" fill="#ed1c24"/><rect y="16" width="20" height="2" fill="#ed1c24"/></g><g transform="translate(1033.76,419.64) scale(4.093999999999999) rotate(0)"><rect width="20" height="2" fill="#ed1c24"/><rect y="4" width="20" height="2" fill="#ed1c24"/><rect y="8" width="20" height="2" fill="#ed1c24"/><rect y="12" width="20" height="2" fill="#ed1c24"/><rect y="16" width="20" height="2" fill="#ed1c24"/></g><g transform="translate(10.24,522) scale(4.093999999999999) rotate(0)"><rect width="20" height="2" fill="#ed1c24"/><rect y="4" width="20" height="2" fill="#ed1c24"/><rect y="8" width="20" height="2" fill="#ed1c24"/><rect y="12" width="20" height="2" fill="#ed1c24"/><rect y="16" width="20" height="2" fill="#ed1c24"/></g><g transform="translate(112.59,522) scale(4.093999999999999) rotate(0)"><rect width="20" height="2" fill="#ed1c24"/><rect y="4" width="20" height="2" fill="#ed1c24"/><rect y="8" width="20" height="2" fill="#ed1c24"/><rect y="12" width="20" height="2" fill="#ed1c24"/><rect y="16" width="20" height="2" fill="#ed1c24"/></g><g transform="translate(214.94,522) scale(4.093999999999999) rotate(0)"><rect width="2" height="20" fill="#ed1c24"/><rect x="4" width="2" height="20" fill="#ed1c24"/><rect x="8" width="2" height="20" fill="#ed1c24"/><rect x="12" width="2" height="20" fill="#ed1c24"/><rect x="16" width="2" height="20" fill="#ed1c24"/></g><g transform="translate(317.29,522) scale(4.093999999999999) rotate(0)"><rect width="20" height="2" fill="#ed1c24"/><rect y="4" width="20" height="2" fill="#ed1c24"/><rect y="8" width="20" height="2" fill="#ed1c24"/><rect y="12" width="20" height="2" fill="#ed1c24"/><rect y="16" width="20" height="2" fill="#ed1c24"/></g><g transform="translate(419.64,522) scale(4.093999999999999) rotate(0)"><rect width="20" height="2" fill="#ed1c24"/><rect y="4" width="20" height="2" fill="#ed1c24"/><rect y="8" width="20" height="2" fill="#ed1c24"/><rect y="12" width="20" height="2" fill="#ed1c24"/><rect y="16" width="20" height="2" fill="#ed1c24"/></g><g transform="translate(522,522) scale(4.093999999999999) rotate(0)"><rect width="20" height="2" fill="#ed1c24"/><rect y="4" width="20" height="2" fill="#ed1c24"/><rect y="8" width="20" height="2" fill="#ed1c24"/><rect y="12" width="20" height="2" fill="#ed1c24"/><rect y="16" width="20" height="2" fill="#ed1c24"/></g><g transform="translate(624.35,522) scale(4.093999999999999) rotate(0)"><rect width="2" height="20" fill="#ed1c24"/><rect x="4" width="2" height="20" fill="#ed1c24"/><rect x="8" width="2" height="20" fill="#ed1c24"/><rect x="12" width="2" height="20" fill="#ed1c24"/><rect x="16" width="2" height="20" fill="#ed1c24"/></g><g transform="translate(726.7,522) scale(4.093999999999999) rotate(0)"><path d="M10 0H20L0 20V10L10 0Z" fill="#ed1c24"/><path d="M20 10V20H10L20 10Z" fill="#ed1c24"/></g><g transform="translate(829.05,522) scale(4.093999999999999) rotate(0)"><path d="M10 0H20L0 20V10L10 0Z" fill="#ed1c24"/><path d="M20 10V20H10L20 10Z" fill="#ed1c24"/></g><g transform="translate(931.41,522) scale(4.093999999999999) rotate(0)"><rect width="20" height="2" fill="#ed1c24"/><rect y="4" width="20" height="2" fill="#ed1c24"/><rect y="8" width="20" height="2" fill="#ed1c24"/><rect y="12" width="20" height="2" fill="#ed1c24"/><rect y="16" width="20" height="2" fill="#ed1c24"/></g><g transform="translate(1033.76,522) scale(4.093999999999999) rotate(0)"><rect width="20" height="2" fill="#ed1c24"/><rect y="4" width="20" height="2" fill="#ed1c24"/><rect y="8" width="20" height="2" fill="#ed1c24"/><rect y="12" width="20" height="2" fill="#ed1c24"/><rect y="16" width="20" height="2" fill="#ed1c24"/></g></g></svg>