<?xml version="1.0" standalone="no"?><svg xmlns="http://www.w3.org/2000/svg" viewBox="0 0 1440 320"><path fill="#ed1c24" fill-opacity="1" d="M0,128L21.8,144C43.6,160,87,192,131,181.3C174.5,171,218,117,262,122.7C305.5,128,349,192,393,224C436.4,256,480,256,524,224C567.3,192,611,128,655,96C698.2,64,742,64,785,80C829.1,96,873,128,916,154.7C960,181,1004,203,1047,181.3C1090.9,160,1135,96,1178,85.3C1221.8,75,1265,117,1309,149.3C1352.7,181,1396,203,1418,213.3L1440,224L1440,0L1418.2,0C1396.4,0,1353,0,1309,0C1265.5,0,1222,0,1178,0C1134.5,0,1091,0,1047,0C1003.6,0,960,0,916,0C872.7,0,829,0,785,0C741.8,0,698,0,655,0C610.9,0,567,0,524,0C480,0,436,0,393,0C349.1,0,305,0,262,0C218.2,0,175,0,131,0C87.3,0,44,0,22,0L0,0Z"></path></svg>